<svg xmlns="http://www.w3.org/2000/svg" width="143.575" height="29" viewBox="0 0 143.575 29"><defs><style>.a{fill:#001a71;}</style></defs><g transform="translate(-473.298 -848.376)"><path class="a" d="M540.042,860.013a5.324,5.324,0,0,0,.854.044c1.033,0,1.962-.369,1.962-1.406,0-.975-.906-1.374-2.015-1.375h-.8Zm0-3.848h.828c1.119,0,1.742-.5,1.742-1.212,0-.788-.63-1.15-1.647-1.15a4.62,4.62,0,0,0-.924.068Zm-1.6-3.316a14.164,14.164,0,0,1,2.356-.18,4.46,4.46,0,0,1,2.531.534,1.768,1.768,0,0,1,.912,1.579,1.952,1.952,0,0,1-1.471,1.808v.032a2.137,2.137,0,0,1,.944,3.812,5.174,5.174,0,0,1-3.286.775,16.34,16.34,0,0,1-1.987-.11Z" transform="translate(-28.481 -1.877)"/><path class="a" d="M554.321,859.913c-1.14-.014-2.23.214-2.23,1.137a.833.833,0,0,0,.921.872,1.31,1.31,0,0,0,1.265-.839,1.083,1.083,0,0,0,.045-.333Zm1.571,1.509a8.63,8.63,0,0,0,.1,1.46h-1.456l-.111-.675h-.039a2.387,2.387,0,0,1-1.883.813,1.85,1.85,0,0,1-2.014-1.8c0-1.531,1.436-2.3,3.79-2.3v-.1c0-.4-.167-1.061-1.3-1.057a3.551,3.551,0,0,0-1.715.451l-.321-.994a4.831,4.831,0,0,1,2.316-.538,2.317,2.317,0,0,1,2.632,2.555Z" transform="translate(-33.749 -3.632)"/><path class="a" d="M562.55,858.623c0-.7-.024-1.277-.052-1.8h1.41l.081.909h.036a2.353,2.353,0,0,1,2.036-1.047c1.115,0,2.271.68,2.271,2.6v3.6h-1.616v-3.419c0-.872-.337-1.534-1.218-1.534a1.331,1.331,0,0,0-1.257.9,1.436,1.436,0,0,0-.075.486v3.568H562.55Z" transform="translate(-39 -3.632)"/><path class="a" d="M579.75,862.7a4.822,4.822,0,0,1-1.8.311,3,3,0,0,1-3.292-3.1,3.217,3.217,0,0,1,3.553-3.227,4.4,4.4,0,0,1,1.558.277l-.286,1.153a2.8,2.8,0,0,0-1.221-.238,1.961,1.961,0,0,0,.006,3.922,3.313,3.313,0,0,0,1.269-.239Z" transform="translate(-44.315 -3.634)"/><path class="a" d="M587.625,861.906c.925,0,1.568-.849,1.568-2.069,0-.953-.443-2.041-1.558-2.041-1.134,0-1.6,1.051-1.6,2.06,0,1.167.614,2.05,1.575,2.05Zm-.038,1.114a3.009,3.009,0,0,1-3.2-3.123,3.077,3.077,0,0,1,3.3-3.214,2.983,2.983,0,0,1,3.172,3.109,3.086,3.086,0,0,1-3.267,3.229Z" transform="translate(-48.572 -3.631)"/><rect class="a" width="2.548" height="13.234" transform="translate(509.958 861.724)"/><path class="a" d="M545.967,881.3c0-1.1-.036-2.015-.081-2.842h2.226l.124,1.435h.06a3.711,3.711,0,0,1,3.209-1.651c1.755,0,3.579,1.073,3.579,4.1v5.678h-2.549v-5.392c0-1.373-.53-2.418-1.92-2.418a2.1,2.1,0,0,0-1.98,1.418,2.228,2.228,0,0,0-.118.766v5.625h-2.55Z" transform="translate(-31.737 -13.057)"/><path class="a" d="M567.82,874.26v2.456h2.421v1.8H567.82v4.219c0,1.17.328,1.765,1.3,1.765a3.577,3.577,0,0,0,.988-.105l.05,1.839a6.007,6.007,0,0,1-1.854.248,3.042,3.042,0,0,1-2.187-.787,3.675,3.675,0,0,1-.8-2.682v-4.5h-1.437v-1.8h1.437v-1.78Z" transform="translate(-39.607 -11.317)"/><path class="a" d="M582.937,882.219a2.089,2.089,0,0,0-2.1-2.328,2.419,2.419,0,0,0-2.332,2.328Zm-4.429,1.685c.068,1.733,1.48,2.49,3.11,2.49a8.007,8.007,0,0,0,2.779-.443l.377,1.665a9.59,9.59,0,0,1-3.52.606c-3.269,0-5.184-1.917-5.184-4.846a4.829,4.829,0,0,1,4.924-5.135c3.273,0,4.34,2.555,4.34,4.649a4.781,4.781,0,0,1-.09,1.014Z" transform="translate(-44.934 -13.057)"/><path class="a" d="M594.931,881.529c0-1.281-.029-2.222-.082-3.073h2.2l.1,1.816h.071a2.988,2.988,0,0,1,2.758-2.032,2.522,2.522,0,0,1,.6.053v2.275a3.787,3.787,0,0,0-.747-.067,2.214,2.214,0,0,0-2.282,1.829,3.716,3.716,0,0,0-.066.728v4.958h-2.547Z" transform="translate(-53.144 -13.057)"/><path class="a" d="M607.17,881.3c0-1.1-.038-2.015-.083-2.842h2.225l.124,1.435h.061a3.707,3.707,0,0,1,3.208-1.651c1.754,0,3.58,1.073,3.58,4.1v5.678h-2.548v-5.392c0-1.373-.531-2.418-1.923-2.418a2.1,2.1,0,0,0-1.98,1.418,2.269,2.269,0,0,0-.117.766v5.625H607.17Z" transform="translate(-58.495 -13.057)"/><path class="a" d="M631.62,883.333c-1.8-.022-3.515.338-3.515,1.794a1.312,1.312,0,0,0,1.451,1.375,2.068,2.068,0,0,0,1.993-1.321,1.8,1.8,0,0,0,.07-.527Zm2.479,2.38a13.752,13.752,0,0,0,.156,2.3h-2.3l-.176-1.066h-.061a3.762,3.762,0,0,1-2.968,1.283,2.915,2.915,0,0,1-3.175-2.843c0-2.413,2.264-3.634,5.973-3.62v-.159c0-.628-.262-1.672-2.044-1.666a5.594,5.594,0,0,0-2.708.713l-.5-1.568a7.593,7.593,0,0,1,3.65-.849c3.23,0,4.152,1.933,4.152,4.03Z" transform="translate(-66.581 -13.057)"/><path class="a" d="M651.018,887.733a7.545,7.545,0,0,1-2.842.494c-3.158,0-5.192-1.922-5.192-4.888,0-2.863,2.059-5.087,5.6-5.087a6.911,6.911,0,0,1,2.458.436l-.451,1.818a4.484,4.484,0,0,0-1.925-.375,3.093,3.093,0,0,0,.007,6.186,5.23,5.23,0,0,0,2-.377Z" transform="translate(-74.19 -13.062)"/><path class="a" d="M659.279,875.337h2.549V884.9h-2.549Zm1.247-1.478a1.523,1.523,0,1,1,.021,0Z" transform="translate(-81.216 -9.938)"/><path class="a" d="M671.612,886.476c1.458,0,2.473-1.338,2.473-3.261,0-1.5-.7-3.22-2.458-3.22-1.787,0-2.521,1.656-2.521,3.25,0,1.839.969,3.23,2.484,3.23Zm-.063,1.756a4.744,4.744,0,0,1-5.039-4.924,4.853,4.853,0,0,1,5.21-5.067,4.7,4.7,0,0,1,5,4.9,4.864,4.864,0,0,1-5.153,5.089Z" transform="translate(-84.476 -13.057)"/><path class="a" d="M686.977,881.3c0-1.1-.036-2.015-.083-2.842h2.225l.124,1.435h.061a3.707,3.707,0,0,1,3.208-1.651c1.756,0,3.58,1.073,3.58,4.1v5.678h-2.548v-5.392c0-1.373-.53-2.418-1.921-2.418a2.1,2.1,0,0,0-1.982,1.418,2.256,2.256,0,0,0-.117.766v5.625h-2.548Z" transform="translate(-93.388 -13.057)"/><path class="a" d="M711.8,883.333c-1.8-.022-3.516.338-3.516,1.794a1.312,1.312,0,0,0,1.451,1.375,2.066,2.066,0,0,0,1.993-1.321,1.763,1.763,0,0,0,.072-.527Zm2.477,2.38a13.439,13.439,0,0,0,.157,2.3h-2.3l-.174-1.066H711.9a3.758,3.758,0,0,1-2.966,1.283,2.916,2.916,0,0,1-3.175-2.843c0-2.413,2.262-3.634,5.972-3.62v-.159c0-.628-.259-1.672-2.043-1.666a5.6,5.6,0,0,0-2.709.713l-.5-1.568a7.594,7.594,0,0,1,3.65-.849c3.23,0,4.153,1.933,4.153,4.03Z" transform="translate(-101.637 -13.057)"/><rect class="a" width="2.548" height="13.941" transform="translate(614.325 861.017)"/><path class="a" d="M507.717,868.682c.06.632.093,1.278.1,1.934.115,7.972-3.74,14.508-8.613,14.6-.087,0-.174,0-.26,0a17.34,17.34,0,0,0,2.741,0c7.845-.63,13.848-6.416,14.387-13.4a3.651,3.651,0,0,0-.059-.9c-.38-1.983-2.392-3.512-5.343-4.385a2.428,2.428,0,0,0-.709-.105,2.173,2.173,0,0,0-2.26,2.074c0,.06.006.123.011.181" transform="translate(-11.215 -7.892)"/><path class="a" d="M511.381,856.2a6.955,6.955,0,0,1,4.2,4.162c-1.4-7.332-8.711-12.589-16.943-11.928-.124.011-.241.022-.365.035.075-.006.14-.008.216-.008,2.879-.056,5.471,2.15,7.13,5.612a2.294,2.294,0,0,0,1.889,1.225,12.924,12.924,0,0,1,3.869.9" transform="translate(-10.921)"/><path class="a" d="M493.507,863.724c.038.478.05.963.05,1.451a18.982,18.982,0,0,1-2.115,8.727c-1.124,2.177-2.626,3.506-4.3,3.527a3.327,3.327,0,0,1-.424-.024c-7.047-.978-12.714-6.271-13.363-13.074-.707-7.429,4.819-14.04,12.6-15.477a3.361,3.361,0,0,1,.539-.043,4.745,4.745,0,0,1,3.7,2.252,3.277,3.277,0,0,1,.652,1.966,3.55,3.55,0,0,1-2.712,3.35c-.507.14-1.01.29-1.52.46-4.595,1.535-8.25,4.021-10.253,6.671,2.066-2,5.559-3.723,9.787-4.694a6.4,6.4,0,0,1,1.429-.161,5.755,5.755,0,0,1,5.927,5.07" transform="translate(0 -0.189)"/></g></svg>